<svg focusable="false" height="20" viewBox="0 0 24 24" width="20" xml:space="preserve" xmlns="http://www.w3.org/2000/svg" xmlns:xlink="http://www.w3.org/1999/xlink"><path d="M19 3H5c-1.11 0-2 .9-2 2v14c0 1.1.89 2 2 2h14c1.1 0 2-.9 2-2V5c0-1.1-.9-2-2-2zm0 2v10.79C16.52 14.37 13.23 14 12 14s-4.52.37-7 1.79V5h14zM5 19v-.77C6.74 16.66 10.32 16 12 16s5.26.66 7 2.23V19H5zm7-6c1.94 0 3.5-1.56 3.5-3.5S13.94 6 12 6 8.5 7.56 8.5 9.5 10.06 13 12 13zm0-5c.83 0 1.5.67 1.5 1.5S12.83 11 12 11s-1.5-.67-1.5-1.5S11.17 8 12 8z" fill="#5F6368"></path><path d="M0 0h24v24H0V0z" fill="none"></path></svg>